<svg id="bevo-silhoutte" data-name="bevo-silhoutte" xmlns="http://www.w3.org/2000/svg" viewBox="0 0 255 129.16">
  <defs>
    <style>
      .cls-1 { fill: #bf5700; }
    </style>
  </defs>
  <path class="cls-1" d="M252.7,1.17c-9.17-2.49-20.28-.64-29.21,2.09C206.43,8.74,191.87,20.32,176,28.61c-8.37,3.54-19.88,4.26-27.6-.56-1.85-1.31-5.2-.37-5.2-.37a3.73,3.73,0,0,0-3.73-.59c-3.86,2.82-7.89-1.53-12,.73-4.1-2.25-8.12,2.09-12-.73a3.73,3.73,0,0,0-3.73.59s-3.35-.94-5.2.37c-7.72,4.83-19.23,4.1-27.6.56C63.13,20.32,48.57,8.74,31.51,3.27,22.58.53,11.47-1.32,2.3,1.17,1.09,2-.27,3.43,0,5.2c.64,1,1.29,2.5,2.66,2.74C35.53,3,53.23,35.61,80.75,44.22c.05.35-1.56,1.69-3.3,2.63C73.57,49,67.8,48.16,67.4,53.48c1,3.3,5.07,4.51,8,5.79,6.84,3.86,15,.65,21.24-2.49a1.73,1.73,0,0,1,2.49.4C98.62,72.07,110,82,112.05,95.8c1.21,6.44-2.82,11.18-3.3,17.22-.05,2.23,1.69.75,2.63,8.13.4,1.34,3.76,5.1,6.79,6.68a24,24,0,0,0,9.33,1.34,24,24,0,0,0,9.33-1.34c3-1.58,6.38-5.34,6.78-6.68.94-7.37,2.68-5.9,2.63-8.13-.48-6-4.51-10.78-3.3-17.22C145,82,156.39,72.07,155.9,57.18a1.73,1.73,0,0,1,2.5-.4c6.19,3.14,14.4,6.36,21.24,2.49,2.9-1.29,6.92-2.49,8-5.79-.4-5.31-6.17-4.48-10.06-6.63-1.75-.94-3.35-2.28-3.3-2.63C201.77,35.61,219.47,3,252.3,7.93c1.37-.24,2-1.69,2.65-2.74C255.27,3.43,253.91,2,252.7,1.17Z" />
  <path class="cls-1" d="M198.62,45.3a4.16,4.16,0,1,0,4.16,4.16A4.16,4.16,0,0,0,198.62,45.3Zm0,7.43a3.27,3.27,0,1,1,3.27-3.27A3.27,3.27,0,0,1,198.62,52.72Z" />
  <path class="cls-1" d="M200.32,48.49a1.41,1.41,0,0,0-1.41-1.41h-2v4.75h.89V49.9h.64l.9,1.93h1l-.94-2A1.41,1.41,0,0,0,200.32,48.49Zm-1.41.52H197.8V48h1.11a.52.52,0,0,1,0,1Z" />
</svg>
